:SAMPLES-PER-SECOND 24
:FULLY-SPECIFIED
:DEGREES
342
root  0.561503 38.0599 54.2825 -177.915 -68.4225 173.304
RightUpLeg  -4.9956 -10.9218 -15.8562
RightLeg  32.9936 5.95043 3.91095
RightFoot  -15.2921 0.207404 9.01022
RightToes  -1.74623e-010 0 -2.59999e-017
Spine  3.68261 -1.79519 -6.17787
Spine1  18.9988 -4.33559 4.43382
HEad  -24.8069 -35.7019 19.6752
LeftShoulder1  1.87947 -3.13263 -21.986
LeftArm  19.5211 -3.47331 -46.5845
LeftForeArm  103.519 -80.6234 -87.866
LeftHand  0.0709037 8.77045 3.85791
RightShoulder  2.87126 5.01596 27.7398
RightArm  -10.2071 -0.459444 34.261
RightForeArm  11.3246 44.1567 10.1095
RightHand  -0.821122 0.131426 -17.2695
LeftUpLeg  -2.90601 10.2517 7.80428
LeftLeg  32.5847 -0.862547 -0.223334
LeftFoot  -15.5318 -0.309852 -10.9795
LeftToes  -6.27559e-011 -2.10356e-011 8.24929e-012
343
root  0.206074 38.8968 54.431 -178.553 -68.6106 173.075
RightUpLeg  -3.06996 -9.28512 -16.1888
RightLeg  30.6681 5.39161 3.22968
RightFoot  -9.17373 -0.309872 12.1478
RightToes  -1.74623e-010 0 -2.59999e-017
Spine  2.97999 -1.40021 -6.03989
Spine1  19.8908 -3.92717 4.46928
HEad  -22.2755 -37.1853 19.304
LeftShoulder1  1.94046 -3.18955 -22.6979
LeftArm  18.3841 0.275584 -49.3672
LeftForeArm  107.825 -80.6173 -92.1512
LeftHand  0.233654 9.2015 8.27706
RightShoulder  2.87798 5.01122 27.8408
RightArm  -14.6921 -2.09484 37.3763
RightForeArm  14.6047 38.8489 8.09952
RightHand  -0.182032 -4.5784 -25.9377
LeftUpLeg  -0.546378 9.47038 7.19941
LeftLeg  29.4197 0.00136617 0.365051
LeftFoot  -10.1024 0.178242 -10.958
LeftToes  -6.27559e-011 -2.10356e-011 8.24929e-012
344
root  -0.246302 40.4248 54.5008 -178.654 -69.9987 172.834
RightUpLeg  -0.820924 -8.21023 -15.7165
RightLeg  25.9473 1.96766 0.851179
RightFoot  2.98756 -1.6423 13.3253
RightToes  -1.74623e-010 0 -2.59999e-017
Spine  2.37149 -1.56457 -7.28439
Spine1  18.8622 -4.61763 6.67648
HEad  -17.3646 -38.6783 17.3902
LeftShoulder1  1.93402 -3.09948 -23.0088
LeftArm  18.9566 7.58388 -51.2519
LeftForeArm  112.81 -79.7416 -106.989
LeftHand  0.324894 8.76533 12.0833
RightShoulder  2.86352 4.93199 27.9923
RightArm  -13.7421 -7.84232 39.1508
RightForeArm  15.9475 38.224 7.83775
RightHand  0.654037 -8.37948 -26.1869
LeftUpLeg  1.82399 10.2127 7.29651
LeftLeg  23.7844 -1.4128 -0.312847
LeftFoot  1.70367 1.2639 -11.0956
LeftToes  -6.27559e-011 -2.10356e-011 8.24929e-012
345
root  -0.60627 41.6162 54.5826 -178.129 -71.5768 172.559
RightUpLeg  -0.397325 -9.57399 -15.1398
RightLeg  23.4976 -1.19104 -0.790178
RightFoot  12.8739 -1.99412 9.77744
RightToes  -1.74623e-010 0 -2.59999e-017
Spine  1.56241 -1.92371 -8.02036
Spine1  17.7842 -5.12856 7.86508
HEad  -14.7529 -39.7549 16.7909
LeftShoulder1  1.94956 -3.30013 -22.341
LeftArm  19.2236 12.9573 -52.0774
LeftForeArm  119.962 -78.7221 -117.955
LeftHand  0.0772355 7.08505 7.26819
RightShoulder  2.88173 4.90814 28.3157
RightArm  -8.91703 -14.5146 38.4407
RightForeArm  16.6963 40.4406 8.4727
RightHand  0.138236 -6.6731 -13.8637
LeftUpLeg  2.44921 11.3503 7.55355
LeftLeg  19.846 -3.61669 -1.11944
LeftFoot  12.4642 2.41723 -11.7744
LeftToes  -6.27559e-011 -2.10356e-011 8.24929e-012
346
root  -0.821918 42.0866 54.7131 -177.167 -72.4666 171.965
RightUpLeg  -1.59564 -11.1936 -14.6389
RightLeg  24.27 0.670819 0.112685
RightFoot  13.1708 -1.40441 6.87805
RightToes  -1.74623e-010 0 -2.59999e-017
Spine  0.924217 -2.10908 -7.95022
Spine1  17.637 -5.0907 7.40757
HEad  -15.5451 -39.7523 17.7875
LeftShoulder1  1.92945 -3.59191 -20.787
LeftArm  18.8059 14.7753 -52.6076
LeftForeArm  132.696 -77.7003 -127.361
LeftHand  -0.0274458 5.049 -0.0337336
RightShoulder  2.79927 4.7908 27.7901
RightArm  -5.34173 -20.0337 37.8643
RightForeArm  15.1902 43.8629 9.73321
RightHand  0.0382074 -2.79709 2.45959
LeftUpLeg  2.07682 10.2994 7.1157
LeftLeg  18.1801 -2.24428 -0.664613
LeftFoot  14.506 2.42691 -10.9411
LeftToes  -6.27559e-011 -2.10356e-011 8.24929e-012
347
root  -0.912493 42.0339 54.8567 -177.183 -72.6101 172.092
RightUpLeg  -3.15359 -9.52881 -13.4748
RightLeg  24.9167 5.77076 2.69909
RightFoot  10.2424 -1.37441 7.57542
RightToes  -1.74623e-010 0 -2.59999e-017
Spine  1.6395 -2.11236 -7.92969
Spine1  17.0637 -5.03296 7.04668
HEad  -17.2858 -38.7929 18.3758
LeftShoulder1  1.82943 -3.45087 -19.8373
LeftArm  19.2651 13.3582 -51.8714
LeftForeArm  139.734 -76.8742 -132.596
LeftHand  -0.018974 4.60432 -0.979791
RightShoulder  2.69149 4.67672 26.9139
RightArm  -3.45332 -22.7404 37.455
RightForeArm  10.4328 46.4447 11.0564
RightHand  0.306539 -2.52412 13.0616
LeftUpLeg  1.84813 8.73462 6.98129
LeftLeg  16.9129 1.85595 0.492162
LeftFoot  12.081 1.59857 -8.06205
LeftToes  -6.27559e-011 -2.10356e-011 8.24929e-012
348
root  -0.947442 41.4204 54.9806 -177.376 -72.5464 172.093
RightUpLeg  -4.55641 -6.3751 -12.5507
RightLeg  25.6162 8.27383 4.0966
RightFoot  7.83128 -1.49437 9.17076
RightToes  -1.74623e-010 0 -2.59999e-017
Spine  3.39766 -1.96035 -8.78136
Spine1  15.4401 -5.13964 7.56534
HEad  -18.1704 -37.7839 17.7474
LeftShoulder1  1.76152 -3.30374 -19.3768
LeftArm  19.7899 10.4443 -50.6129
LeftForeArm  136.374 -77.1462 -130.73
LeftHand  -0.0304276 5.16384 1.41306
RightShoulder  2.63378 4.69644 26.0984
RightArm  -3.26761 -23.6126 36.6695
RightForeArm  8.30895 47.958 11.8534
RightHand  0.189676 -3.57343 13.6408
LeftUpLeg  1.53213 9.17414 7.50928
LeftLeg  17.0319 3.52181 0.905426
LeftFoot  9.25943 1.38419 -7.91441
LeftToes  -6.27559e-011 -2.10356e-011 8.24929e-012
349
root  -0.972248 40.1602 55.0886 -175.526 -73.6179 170.076
RightUpLeg  -5.66933 -6.32084 -13.0121
RightLeg  29.361 6.87667 3.93964
RightFoot  -0.268005 -0.879331 9.0147
RightToes  -1.74623e-010 0 -2.59999e-017
Spine  4.32192 -2.17249 -10.4946
Spine1  14.9222 -5.74517 8.09162
HEad  -19.1481 -37.1721 17.4168
LeftShoulder1  1.73725 -3.35506 -18.7863
LeftArm  19.7753 5.01444 -49.0561
LeftForeArm  122.72 -78.4811 -120.393
LeftHand  -0.0235023 5.57452 2.92467
RightShoulder  2.63118 4.75804 25.8168
RightArm  -4.97016 -22.8792 35.8681
RightForeArm  8.656 48.3836 11.9984
RightHand  0.0801396 -3.95491 8.20451
LeftUpLeg  -0.291132 11.3984 7.67048
LeftLeg  21.7338 0.314661 0.352213
LeftFoot  1.63845 1.17056 -10.4532
LeftToes  -6.27559e-011 -2.10356e-011 8.24929e-012
350
root  -0.909741 38.693 55.1815 -172.981 -75.3912 167.569
RightUpLeg  -7.03941 -8.00454 -13.8144
RightLeg  35.086 5.28118 3.73303
RightFoot  -11.6393 -0.057674 8.25297
RightToes  -1.74623e-010 0 -2.59999e-017
Spine  4.24621 -2.85363 -11.8923
Spine1  16.4537 -6.68988 7.77134
HEad  -21.1753 -36.9473 18.6151
LeftShoulder1  1.72283 -3.17928 -19.2706
LeftArm  19.1567 -3.05131 -46.3953
LeftForeArm  101.553 -79.8654 -99.5437
LeftHand  0.0357511 7.14299 4.5382
RightShoulder  2.82481 4.93928 27.4879
RightArm  -6.14113 -17.6671 34.4089
RightForeArm  9.21476 44.1687 10.2604
RightHand  -0.0292675 -3.19454 -0.647982
LeftUpLeg  -3.54613 11.5368 7.45152
LeftLeg  29.2536 -1.71018 -0.672636
LeftFoot  -9.36904 0.255729 -11.5739
LeftToes  -6.27559e-011 -2.10356e-011 8.24929e-012
351
root  -0.762806 37.9298 55.2377 -173.246 -75.6835 168.066
RightUpLeg  -8.9676 -8.25844 -13.708
RightLeg  38.8439 5.00041 4.04896
RightFoot  -15.8585 0.194588 7.59021
RightToes  -1.74623e-010 0 -2.59999e-017
Spine  4.4479 -2.99379 -12.2753
Spine1  17.6313 -6.93044 7.44817
HEad  -23.0329 -37.2397 20.1634
LeftShoulder1  1.79186 -3.06834 -20.8577
LeftArm  16.221 -6.14041 -45.1563
LeftForeArm  92.4405 -80.2992 -82.5155
LeftHand  0.172374 8.95988 6.81737
RightShoulder  3.14053 5.27063 29.8891
RightArm  -6.35901 -10.1324 33.6356
RightForeArm  15.7691 36.5245 7.34352
RightHand  -0.0438632 -4.79228 -11.4382
LeftUpLeg  -6.18093 12.1312 7.73062
LeftLeg  34.1591 -2.10757 -1.15412
LeftFoot  -14.5874 -0.232125 -11.1671
LeftToes  -6.27559e-011 -2.10356e-011 8.24929e-012
